<svg width="143" height="29" viewBox="0 0 143 29" fill="none" xmlns="http://www.w3.org/2000/svg">
<path d="M6.11111 10.6111H7.66667V12.2778H6.11111V10.6111ZM17 6.44442V18.1111C17 19.0278 16.3 19.7778 15.4444 19.7778H4.55556C4.143 19.7778 3.74733 19.6022 3.45561 19.2896C3.16389 18.977 3 18.5531 3 18.1111L3.00778 6.44442C3.00778 5.52775 3.69222 4.77775 4.55556 4.77775H5.33333V3.11108H6.88889V4.77775H13.1111V3.11108H14.6667V4.77775H15.4444C16.3 4.77775 17 5.52775 17 6.44442ZM4.55556 8.11108H15.4444V6.44442H4.55556V8.11108ZM15.4444 18.1111V9.77775H4.55556V18.1111H15.4444ZM12.3333 12.2778H13.8889V10.6111H12.3333V12.2778ZM9.22222 12.2778H10.7778V10.6111H9.22222V12.2778Z" fill="#7688A4"/>
</svg>
